# xmcd
#
# Track frame offsets:
#	150
#	12138
#	22203
#	45566
#	57581
#	70081
#	83618
#	94015
#	110662
#	122050
#	135962
#	148384
#	161461
#	175171
#	188041
#	211724
#	227544
#	261194
#	283374
#	304839
#
# Disc length: 4292 seconds
#
# Revision: 0
# Processed by: cddbd v1.5PL3 Copyright (c) Steve Scherf et al.
# Submitted via: dBpowerAMP V4.0
#
DISCID=1910c214
DTITLE=Johnny Clyde Copeland - At His Best
DYEAR=1998
DGENRE=Blues
TTITLE0=Baby please don't go
TTITLE1=Late hours
TTITLE2=Rock me baby
TTITLE3=Down on bending knees
TTITLE4=Heebie Jeebies
TTITLE5=Just one more time
TTITLE6=Wella Wella baby
TTITLE7=Ain't nobody's business
TTITLE8=Mama told me
TTITLE9=Working man's blues
TTITLE10=Working man's blues (ACA Version)
TTITLE11=Let me cry
TTITLE12=That's alright mama
TTITLE13=All these things
TTITLE14=Night time is the right time (Part 1 and 2)
TTITLE15=Ghetto child
TTITLE16=Texas party
TTITLE17=Drinking New York
TTITLE18=Travelling Blues
TTITLE19=You got me singing a love song
EXTD=
EXTT0=
EXTT1=
EXTT2=
EXTT3=
EXTT4=
EXTT5=
EXTT6=
EXTT7=
EXTT8=
EXTT9=
EXTT10=
EXTT11=
EXTT12=
EXTT13=
EXTT14=
EXTT15=
EXTT16=
EXTT17=
EXTT18=
EXTT19=
PLAYORDER=
